# xmcd
#
# Track frame offsets: 
#        150
#        18170
#        34237
#        51294
#        71698
#        87709
#        104584
#        125825
#        140884
#        160820
#        176010
#        192411
#        209838
#
# Disc length: 3043 seconds
#
# Revision: 2
# Processed by: cddbd v1.5.2PL0 Copyright (c) Steve Scherf et al.
# Submitted via: ExactAudioCopy v0.95a4
#
DISCID=d10be10d
DTITLE=Dana Fuchs - Love Lives On
DYEAR=2018
DGENRE=Blues
TTITLE0=Backstreet Baby
TTITLE1=Nobody's Fault But Mine
TTITLE2=Callin' Angels
TTITLE3=Sittin' On
TTITLE4=Love Lives On
TTITLE5=Sad Solution
TTITLE6=Faithful Sinner
TTITLE7=Sedative
TTITLE8=Ready To Rise
TTITLE9=Fight My Way
TTITLE10=Battle Lines
TTITLE11=Same Sunlight
TTITLE12=Ring Of Fire
EXTD=Year: 2018\n\n\n\n\n\n                                           
EXTD=      http://danafuchs.com/     
EXTT0=
EXTT1=
EXTT2=
EXTT3=
EXTT4=
EXTT5=
EXTT6=
EXTT7=
EXTT8=
EXTT9=
EXTT10=
EXTT11=
EXTT12=
PLAYORDER=
